<?xml version="1.0" encoding="UTF-8"?>
<svg version="1.1" xmlns="http://www.w3.org/2000/svg" width="512" height="512">
<path d="M0 0 C1.27729477 -0.00852997 2.55458954 -0.01705994 3.87059021 -0.02584839 C5.28901685 -0.02514934 6.70744339 -0.02422627 8.12586975 -0.02310181 C9.61734352 -0.0290851 11.10881419 -0.03589018 12.60028076 -0.04345703 C16.65397794 -0.06114348 20.70759071 -0.06581349 24.76132274 -0.0670886 C28.14363708 -0.06898647 31.52593171 -0.07634261 34.90823847 -0.08343279 C42.88671685 -0.09972401 50.86515009 -0.10460104 58.84364319 -0.10317993 C67.07857132 -0.10197793 75.31323761 -0.1230896 83.54809946 -0.15466726 C90.6148432 -0.18080165 97.68150127 -0.19154844 104.74829298 -0.19026911 C108.97050238 -0.18975869 113.19247909 -0.19548612 117.41464043 -0.21662521 C121.38493198 -0.23596032 125.35476771 -0.2361649 129.32507515 -0.22159195 C130.78276865 -0.21949691 132.24049032 -0.22424606 133.69813538 -0.23631287 C135.68680192 -0.25171029 137.67562319 -0.24008322 139.66430664 -0.22705078 C141.3342816 -0.22868508 141.3342816 -0.22868508 143.03799343 -0.2303524 C146.56559656 0.38412522 147.74197788 1.45641153 149.89564514 4.26742554 C150.44154358 7.10824585 150.44154358 7.10824585 150.50502014 10.34555054 C150.5372467 11.50570679 150.56947327 12.66586304 150.60267639 13.86117554 C150.61685608 15.06773804 150.63103577 16.27430054 150.64564514 17.51742554 C150.6901178 19.35047241 150.6901178 19.35047241 150.73548889 21.22055054 C150.80616916 24.23624197 150.85887689 27.25116103 150.89564514 30.26742554 C151.52212952 29.3405896 152.14861389 28.41375366 152.79408264 27.45883179 C153.61936929 26.24903658 154.44490296 25.03940987 155.27064514 23.82992554 C155.68314514 23.21826538 156.09564514 22.60660522 156.52064514 21.97640991 C159.66908264 17.38070679 159.66908264 17.38070679 161.89564514 16.26742554 C169.21734382 15.46382446 173.36431269 17.67139484 179.52064514 21.45492554 C180.43523499 21.99737915 181.34982483 22.53983276 182.29212952 23.09872437 C184.21544223 24.24138874 186.13434367 25.39150783 188.04896545 26.54867554 C190.73523549 28.17057443 193.43290164 29.77063941 196.13783264 31.36117554 C199.72815448 33.47235992 203.313797 35.59111418 206.89564514 37.71664429 C213.71455547 41.75820234 220.55522964 45.76243505 227.39564514 49.76742554 C238.69905126 56.38727974 249.98586992 63.03462893 261.25843811 69.70687866 C264.88298538 71.85167649 268.50888806 73.99417565 272.13514709 76.13607788 C273.95845899 77.21358475 275.78122392 78.29201778 277.60340881 79.37142944 C282.42319496 82.22506194 287.2532191 85.0592939 292.09877014 87.86898804 C293.1106842 88.45873413 294.12259827 89.04848022 295.16517639 89.65609741 C297.11248367 90.79053789 299.0628876 91.91968395 301.01673889 93.04281616 C301.8894342 93.55264038 302.76212952 94.0624646 303.66127014 94.58773804 C304.43245178 95.03391479 305.20363342 95.48009155 305.9981842 95.93978882 C307.89564514 97.26742554 307.89564514 97.26742554 309.89564514 100.26742554 C311.08584396 108.13837539 307.79511598 112.38021596 303.33314514 118.64242554 C302.24113111 120.22627405 301.14916511 121.81015632 300.05862427 123.39501953 C298.86289521 125.12737312 297.65908134 126.8539003 296.45423889 128.57992554 C293.77344031 132.4306023 291.14302701 136.31430707 288.52064514 140.20492554 C288.06042465 140.88764023 287.60020416 141.57035492 287.1260376 142.27375793 C286.17799903 143.68042612 285.23005811 145.08716012 284.2822113 146.49395752 C281.82159408 150.14220874 279.35257561 153.78476287 276.88392639 157.42758179 C271.56489469 165.27849996 266.24971647 173.13201724 260.93650818 180.98687744 C259.52240548 183.07732326 258.10809092 185.1676256 256.69374084 187.25790405 C251.52762023 194.89362621 246.36576423 202.53220818 241.20814514 210.17367554 C240.08104099 211.84319843 238.95392518 213.51271346 237.82679749 215.18222046 C235.68566179 218.35369504 233.54549856 221.52582266 231.40589905 224.69833374 C230.41562341 226.16545677 229.42522928 227.63249983 228.43470764 229.09945679 C227.96288055 229.79879837 227.49105347 230.49813995 227.00492859 231.21867371 C224.76216224 234.53589994 222.50407617 237.84043679 220.20716858 241.12045288 C219.57867508 242.01893196 219.57867508 242.01893196 218.93748474 242.93556213 C217.8131181 244.53794465 216.68344386 246.13659927 215.55335999 247.73495483 C213.76651708 250.22982146 213.76651708 250.22982146 212.89564514 253.26742554 C213.4641217 253.5059021 214.03259827 253.74437866 214.61830139 253.99008179 C224.31244739 259.42745013 228.67424636 270.02635277 232.20814514 279.95492554 C235.01191218 293.23879265 233.00696647 306.95500822 225.89564514 318.51742554 C224.5832832 320.44851203 223.24738941 322.36369858 221.89564514 324.26742554 C221.0422885 325.48583106 220.18945804 326.70460521 219.33705139 327.92367554 C217.34171855 330.76671242 215.33440802 333.60092429 213.32142639 336.43148804 C209.56081932 341.72728311 205.85128822 347.05808167 202.14564514 352.39242554 C201.47452698 353.35833618 200.80340881 354.32424683 200.11195374 355.31942749 C198.735198 357.3011907 197.3585715 359.28304369 195.98207092 361.26498413 C193.8913398 364.27362108 191.79820677 367.28057183 189.70423889 370.28695679 C189.01362366 371.27872925 188.32300842 372.27050171 187.61146545 373.29232788 C186.32076101 375.14573473 185.02977648 376.99894658 183.73841858 378.85189819 C182.52424755 380.59609535 181.32499791 382.35078121 180.14143372 384.1158905 C178.53175979 386.3747602 176.96002389 388.37143824 175.14308167 390.43919373 C165.18519342 402.34672405 165.36395487 413.67290413 165.60267639 428.67367554 C165.59896607 430.8218018 165.59030608 432.96992526 165.57667542 435.11801147 C165.56079311 443.0012553 165.63999501 450.88446029 165.70814514 458.76742554 C165.80095764 485.24992554 165.80095764 485.24992554 165.89564514 512.26742554 C123.65564514 512.26742554 81.41564514 512.26742554 37.89564514 512.26742554 C37.84666077 500.77285522 37.79767639 489.27828491 37.74720764 477.43539429 C37.71181737 470.14827744 37.67593498 462.8611685 37.63783264 455.57406616 C37.57746217 444.0106894 37.51908624 432.44732749 37.47377014 420.88388062 C37.44075412 412.46144317 37.40087025 404.03907053 37.35285509 395.61670476 C37.32768537 391.16013949 37.30587632 386.70361667 37.29230118 382.24699974 C37.27939388 378.04533815 37.25724763 373.84382289 37.22826195 369.64224243 C37.21925348 368.10688683 37.21351184 366.57150771 37.2114315 365.03612709 C37.18348539 347.53086245 34.49265025 336.61402449 23.95814514 322.70492554 C22.74027184 321.07894199 21.5228168 319.45264506 20.30580139 317.82601929 C19.72846252 317.0575769 19.15112366 316.28913452 18.55628967 315.49740601 C16.28916979 312.45302597 14.08767142 309.36621032 11.89564514 306.26742554 C7.50665573 306.83395681 4.02334711 307.96659876 0.02064514 309.82992554 C-5.09119337 312.01165314 -8.58806604 313.15397195 -14.10435486 312.26742554 C-18.25330945 309.04361403 -20.04437205 304.76361348 -22.19419861 300.11117554 C-22.57494537 299.30509857 -22.95569214 298.49902161 -23.34797668 297.66851807 C-24.58760641 295.03864881 -25.81483457 292.40319845 -27.04185486 289.76742554 C-27.90077765 287.93848507 -28.76040213 286.10987398 -29.62071228 284.28158569 C-32.12671671 278.9488508 -34.61691933 273.60884078 -37.10435486 268.26742554 C-37.74843368 266.88683247 -38.39262842 265.50629347 -39.03697205 264.12582397 C-41.70268502 258.41221796 -44.35738768 252.69358814 -47.00279236 246.97055054 C-50.33140063 239.76954095 -53.68500719 232.58029573 -57.04185486 225.39242554 C-57.62951129 224.13380388 -58.21715778 222.87517758 -58.80479431 221.61654663 C-59.98249842 219.0941963 -61.16033433 216.57190757 -62.33824158 214.0496521 C-64.97009831 208.41377522 -67.60016364 202.77706236 -70.23036194 197.14041138 C-71.68828599 194.01604842 -73.14632632 190.89173973 -74.60435486 187.76742554 C-75.18768875 186.5174258 -75.77102208 185.2674258 -76.35435486 184.01742554 C-76.78747986 183.08930054 -76.78747986 183.08930054 -77.22935486 182.14242554 C-93.85435486 146.51742554 -93.85435486 146.51742554 -94.72929382 144.64254761 C-95.3128217 143.39213655 -95.89635849 142.14172965 -96.47990417 140.8913269 C-97.93533404 137.7726501 -99.39061057 134.65390193 -100.8455658 131.53500366 C-104.11111615 124.53533664 -107.38061488 117.53753874 -110.65498352 110.54199219 C-112.71529289 106.13854507 -114.76683375 101.73108317 -116.81529236 97.32211304 C-118.91980631 92.79377107 -121.05018526 88.27940111 -123.20591736 83.77523804 C-124.13069115 81.81443947 -125.05518854 79.8535105 -125.97935486 77.89242554 C-126.40248962 77.02553101 -126.82562439 76.15863647 -127.26158142 75.26547241 C-129.71840792 70.00054551 -130.91478493 66.0900539 -130.10435486 60.26742554 C-126.70188794 55.50504929 -121.20101918 53.97737235 -115.9549408 51.91366577 C-114.92357498 51.49849701 -113.89220917 51.08332825 -112.82958984 50.65557861 C-109.41982648 49.28587059 -106.00441067 47.93089575 -102.58872986 46.57601929 C-100.21429549 45.62572629 -97.84021574 44.6745468 -95.46647644 43.72251892 C-90.48897561 41.72851549 -85.5090652 39.74073069 -80.52671814 37.75888062 C-73.52133933 34.97231936 -66.52101351 32.17324751 -59.52180433 29.37123191 C-49.60827261 25.40318302 -39.69214591 21.44163646 -29.77134705 17.49179077 C-28.80586441 17.10677902 -27.84038177 16.72176727 -26.84564209 16.3250885 C-25.94011093 15.96493652 -25.03457977 15.60478455 -24.10160828 15.23371887 C-23.25468163 14.89385389 -22.40775497 14.55398891 -21.53516388 14.203825 C-19.94257795 13.59032694 -18.3347147 13.0148158 -16.71315765 12.48259163 C-14.28299268 11.71630033 -14.28299268 11.71630033 -11.10435486 10.26742554 C-9.93763146 7.61674275 -9.60805099 5.15223067 -9.10435486 2.26742554 C-5.5886565 -0.07637337 -4.16112439 0.01253149 0 0 Z " fill="#010101" transform="translate(154.10435485839844,-0.267425537109375)"/>
<path d="M0 0 C3.63894928 1.36849725 6.9324108 3.00460642 10.296875 4.94921875 C11.32490234 5.5421875 12.35292969 6.13515625 13.41210938 6.74609375 C14.51361328 7.38675781 15.61511719 8.02742188 16.75 8.6875 C17.91467915 9.36203855 19.07939329 10.03651669 20.24414062 10.7109375 C29.08449552 15.8404309 37.8507168 21.08952329 46.60058594 26.37182617 C54.01629367 30.83855335 61.49040287 35.19324801 69 39.5 C80.84492651 46.29526138 92.56585203 53.28384202 104.25488281 60.34326172 C108.18607558 62.71582256 112.12404255 65.07702581 116.0625 67.4375 C117.24092597 68.14446365 118.41931678 68.85148593 119.59765625 69.55859375 C120.39042969 70.03425781 121.18320312 70.50992188 122 71 C120.61271182 74.83633385 118.83137883 77.9697256 116.53515625 81.3359375 C115.81859863 82.39264648 115.10204102 83.44935547 114.36376953 84.53808594 C113.97924622 85.10088257 113.5947229 85.6636792 113.19854736 86.24353027 C111.980504 88.02857136 110.77017607 89.81861132 109.56201172 91.61035156 C106.8588991 95.61866448 104.14833002 99.62190395 101.4375 103.625 C100.42573719 105.11976185 99.41401943 106.61455418 98.40234375 108.109375 C96.307302 111.20486981 94.21206952 114.30023539 92.11669922 117.39550781 C89.14076927 121.79175484 86.16586419 126.18869442 83.19140625 130.5859375 C82.72023376 131.28248444 82.24906128 131.97903137 81.76361084 132.69668579 C79.86825397 135.49870309 77.97294866 138.30075526 76.07769775 141.10284424 C71.18854505 148.33133451 66.29884029 155.55944711 61.40553284 162.78512573 C46.125677 185.34078818 46.125677 185.34078818 31 208 C25.23323425 204.84956556 19.91754958 201.2393108 14.5625 197.4375 C12.773807 196.17655901 10.98474016 194.91614819 9.1953125 193.65625 C8.31391602 193.03492188 7.43251953 192.41359375 6.52441406 191.7734375 C2.38215692 188.86344177 -1.78456766 185.98958766 -5.96801758 183.13916016 C-9.67721903 180.61018044 -13.3521675 178.04114977 -17.00390625 175.4296875 C-17.85525146 174.82842041 -18.70659668 174.22715332 -19.58374023 173.60766602 C-21.24092701 172.43701616 -22.89062049 171.25566391 -24.53149414 170.06225586 C-27.95278729 167.66278893 -30.21847911 166.10742555 -34.41015625 165.53125 C-37.82600207 166.14950264 -38.9674775 167.21469139 -41 170 C-45.344236 186.28369256 -40.24364944 204.41165588 -32.5078125 218.76953125 C-25.72904059 230.10532446 -16.57570006 239.20013445 -6 247 C-6.91244206 248.25308709 -7.83017771 249.50232026 -8.75 250.75 C-9.26046875 251.44609375 -9.7709375 252.1421875 -10.296875 252.859375 C-12.06090365 255.07654862 -13.96289926 257.03375494 -16 259 C-27.02661383 252.15033733 -37.90648183 245.1037015 -48.6875 237.875 C-56.34134366 232.74442029 -64.00832069 227.66004663 -71.85839844 222.83325195 C-78.29365985 218.85957054 -84.6132541 214.70952438 -90.9375 210.5625 C-91.78038071 210.00979431 -91.78038071 210.00979431 -92.64028931 209.44592285 C-94.31621305 208.34680772 -95.99209111 207.24762292 -97.66796875 206.1484375 C-103.67872459 202.20610206 -109.70764306 198.29274994 -115.74975586 194.39868164 C-119.52251339 191.9652357 -123.27067316 189.49956415 -127 187 C-122.19552622 179.34912331 -117.22524323 171.83141193 -112.125 164.375 C-111.00142976 162.72755652 -109.87786223 161.08011118 -108.75445557 159.43255615 C-107.5988558 157.73821895 -106.44254544 156.04436843 -105.28613281 154.35058594 C-101.68331155 149.07212263 -98.09238498 143.78556852 -94.5 138.5 C-93.08338682 136.4166303 -91.66672003 134.33329705 -90.25 132.25 C-89.198125 130.703125 -89.198125 130.703125 -88.125 129.125 C-69 101 -49.875 72.875 -30.75 44.75 C-30.04746094 43.71681641 -29.34492188 42.68363281 -28.62109375 41.61914062 C-27.21759064 39.55524148 -25.81394696 37.49143792 -24.41015625 35.42773438 C-21.07145663 30.51916203 -17.73427471 25.60957597 -14.40197754 20.69665527 C-12.81728129 18.36046673 -11.23179329 16.02481607 -9.64624023 13.68920898 C-8.51924317 12.02835858 -7.39340053 10.36672501 -6.26757812 8.70507812 C-5.59146484 7.70927734 -4.91535156 6.71347656 -4.21875 5.6875 C-3.3205957 4.36298828 -3.3205957 4.36298828 -2.40429688 3.01171875 C-1 1 -1 1 0 0 Z " fill="#8FE1F3" transform="translate(322,35)"/>
<path d="M0 0 C4.29682137 1.47479027 7.69515611 3.75894175 11.3125 6.4375 C12.56939902 7.3515179 13.82724647 8.2642327 15.0859375 9.17578125 C15.73401367 9.64580566 16.38208984 10.11583008 17.04980469 10.60009766 C20.14639778 12.82291498 23.29033352 14.97466447 26.4375 17.125 C33.2830257 21.81577011 40.11634498 26.52384786 46.9375 31.25 C48.3759729 32.24217529 48.3759729 32.24217529 49.84350586 33.25439453 C67.32747306 45.38451415 67.32747306 45.38451415 70.5 51.25 C70.9640625 52.08015625 71.428125 52.9103125 71.90625 53.765625 C74.16745885 58.38495165 74.2513433 62.64411084 74.3125 67.6875 C74.34150391 68.46544922 74.37050781 69.24339844 74.40039062 70.04492188 C74.51258478 80.39267552 68.5334177 87.4121237 62.75 95.5625 C61.30715031 97.61578609 59.86444602 99.66917437 58.421875 101.72265625 C57.68646484 102.76566895 56.95105469 103.80868164 56.19335938 104.88330078 C52.77473569 109.74106457 49.388129 114.6209433 46 119.5 C44.67076911 121.41159477 43.34134135 123.32305267 42.01171875 125.234375 C41.02244385 126.6565332 41.02244385 126.6565332 40.01318359 128.10742188 C37.97491078 131.03604864 35.93491839 133.96347098 33.89453125 136.890625 C33.21068359 137.87224609 32.52683594 138.85386719 31.82226562 139.86523438 C30.55468033 141.68469354 29.28652882 143.50375848 28.01757812 145.32226562 C26.79760081 147.07392669 25.59439565 148.83737442 24.40722656 150.61143494 C22.67107453 153.13932185 20.78266326 155.46364462 18.79772949 157.80018616 C7.79942326 171.34216266 7.18448294 183.03104124 7.51171875 200.01171875 C7.513532 202.56289389 7.50958969 205.11407893 7.50019836 207.66523743 C7.49185392 213.64025987 7.54052692 219.61300311 7.61836988 225.5873602 C7.71230083 233.07443405 7.71627843 240.56125846 7.72070312 248.04882812 C7.72896087 261.36755288 7.87039742 274.68067959 8 288 C-23.68 288 -55.36 288 -88 288 C-88.12049101 258.82332622 -88.12049101 258.82332622 -88.1507616 244.33571625 C-88.16733866 236.52323385 -88.18833191 228.71084831 -88.22631836 220.8984375 C-88.25639553 214.70967777 -88.27561605 208.52099139 -88.28226548 202.33216059 C-88.28614706 199.06084828 -88.2967684 195.78979229 -88.31719017 192.51853561 C-88.46414145 167.98958709 -86.12770291 145.82193019 -68.8359375 126.74609375 C-50.21066189 109.03226779 -26.02735213 104.39439121 -1.1796875 103.34375 C3.58007771 102.82918079 5.17974401 101.94486917 8.33984375 98.3046875 C9.21286063 97.1668949 10.07827881 96.02324624 10.9375 94.875 C11.91132775 93.6030685 12.8866499 92.33228008 13.86328125 91.0625 C14.3732666 90.39734375 14.88325195 89.7321875 15.40869141 89.046875 C18.08457487 85.60492855 20.86023595 82.2455953 23.625 78.875 C25.24487717 76.88145262 26.86115643 74.88507415 28.47509766 72.88671875 C29.46410302 71.66305026 30.45580691 70.44155599 31.45068359 69.22265625 C32.75344937 67.61839722 34.03566209 65.99992516 35.3125 64.375 C36.03050781 63.47523438 36.74851562 62.57546875 37.48828125 61.6484375 C39.3310605 58.42000253 39.60355192 56.6605669 39 53 C36.29864504 49.46545604 32.63848813 47.34336713 28.9375 44.9375 C18.79044395 38.0917959 10.6441986 29.97887663 5 19 C4.40058594 17.88044922 4.40058594 17.88044922 3.7890625 16.73828125 C0.67937758 10.77253819 -0.12892848 6.70428113 0 0 Z " fill="#FEBD91" transform="translate(296,224)"/>
<path d="M0 0 C42.24 0 84.48 0 128 0 C128 42 128 42 120 53 C118.04183982 55.88530976 116.10221028 58.77420237 114.1875 61.6875 C113.16205169 63.23086315 112.13599548 64.77382256 111.109375 66.31640625 C109.54751262 68.66656709 107.98804165 71.01815027 106.43554688 73.37451172 C104.94580802 75.63124949 103.44313868 77.87885 101.9375 80.125 C101.48463623 80.81811279 101.03177246 81.51122559 100.56518555 82.2253418 C99.45373638 83.87155077 98.23538729 85.44464105 97 87 C92.80123673 87 90.87760591 84.7899973 88 82 C86.2270614 80.0518054 84.50986999 78.0635207 82.796875 76.0625 C81.02127823 74.0244237 79.19940271 72.06028483 77.3125 70.125 C76.77238281 69.57070312 76.23226562 69.01640625 75.67578125 68.4453125 C72.62782675 65.81654055 70.92890928 64.98398678 66.81347656 65.05493164 C61.75265387 66.30912144 59.35600973 68.74269621 55.75390625 72.37890625 C55.09792953 73.02439926 54.44195282 73.66989227 53.76609802 74.33494568 C52.38804441 75.70018994 51.01764185 77.07319532 49.65454102 78.45336914 C47.56863971 80.55631014 45.44814029 82.61921022 43.32226562 84.68164062 C41.98471689 86.01596526 40.64935303 87.3524844 39.31640625 88.69140625 C38.68215225 89.30319229 38.04789825 89.91497833 37.39442444 90.54530334 C34.39370175 93.64342477 32.60561858 95.80875828 32.43310547 100.22241211 C32.9841738 103.89453974 33.20675529 105.20549956 35.75390625 107.75 C36.39344238 108.40871094 37.03297852 109.06742187 37.69189453 109.74609375 C38.45356934 110.48988281 39.21524414 111.23367187 40 112 C41.35327393 113.37865234 41.35327393 113.37865234 42.73388672 114.78515625 C45.77587184 117.88306603 48.85489474 120.94259574 51.9375 124 C53.01390654 125.07137887 54.09008014 126.14299182 55.16601562 127.21484375 C57.77466745 129.81259638 60.38644471 132.40717962 63 135 C61.51629532 139.22288953 59.33235982 142.73064633 56.80859375 146.390625 C56.3911087 147.0042691 55.97362366 147.61791321 55.54348755 148.25015259 C54.17925787 150.25316653 52.80841434 152.25155675 51.4375 154.25 C50.48969124 155.63917074 49.54234874 157.02865971 48.59545898 158.41845703 C46.66861623 161.2451635 44.73925252 164.07012113 42.80761719 166.89355469 C39.4425856 171.81300782 36.09079207 176.74141577 32.74047852 181.67089844 C31.33051275 183.74514916 29.91960403 185.81875936 28.50756836 187.89160156 C27.25229881 189.73495803 25.99891333 191.57959952 24.74780273 193.42578125 C23.57951071 195.14647843 22.40449035 196.86262587 21.22290039 198.57421875 C20.67754639 199.37214844 20.13219238 200.17007813 19.5703125 200.9921875 C19.08965332 201.68940918 18.60899414 202.38663086 18.11376953 203.10498047 C16.42904641 205.97144712 16.19627738 207.78510951 17 211 C20.53284511 215.01877548 24.50902699 217.77853488 29.0625 220.5 C30.47108166 221.36160032 31.87857859 222.22497574 33.28515625 223.08984375 C34.03684082 223.55116699 34.78852539 224.01249023 35.56298828 224.48779297 C40.07827987 227.28960784 44.53969396 230.17423964 49 233.0625 C49.89082275 233.63484375 50.78164551 234.2071875 51.69946289 234.796875 C52.93104126 235.59544922 52.93104126 235.59544922 54.1875 236.41015625 C55.29158203 237.12377319 55.29158203 237.12377319 56.41796875 237.85180664 C56.94003906 238.23071045 57.46210938 238.60961426 58 239 C58 239.33 58 239.66 58 240 C38.86 240 19.72 240 0 240 C0 160.8 0 81.6 0 0 Z " fill="#F58F37" transform="translate(160,16)"/>
<path d="M0 0 C0.00496522 1.83435167 0.00496522 1.83435167 0.01003075 3.70576096 C0.08901516 32.72225228 0.1782224 61.73869943 0.28005161 90.75511901 C0.29257077 94.325027 0.3050035 97.89493528 0.31738281 101.46484375 C0.31984881 102.17556082 0.3223148 102.8862779 0.32485552 103.61853185 C0.36460032 115.13270038 0.39734003 126.64687875 0.42749982 138.16107592 C0.45859246 149.97201445 0.49719246 161.78291116 0.54279006 173.59380269 C0.56819136 180.2293466 0.58985419 186.86486972 0.60334396 193.50045013 C0.6161413 199.74169455 0.63817054 205.98283722 0.66738319 212.22402573 C0.6764772 214.518616 0.68215343 216.81322267 0.68421364 219.10783005 C0.68752328 222.23319709 0.70296565 225.35827339 0.7215271 228.48358154 C0.718625 229.85517304 0.718625 229.85517304 0.71566427 231.25447345 C0.72312976 232.09148579 0.73059525 232.92849813 0.73828697 233.79087448 C0.74056529 234.51234311 0.74284362 235.23381174 0.74519098 235.97714305 C1.04554748 238.36158857 1.74271126 239.9593045 3 242 C5.4416617 243.22083085 7.08690806 243.15730743 9.81689453 243.20532227 C10.81778107 243.22526749 11.8186676 243.24521271 12.84988403 243.26576233 C13.93325043 243.28247482 15.01661682 243.29918732 16.1328125 243.31640625 C17.23978485 243.33718735 18.3467572 243.35796844 19.48727417 243.37937927 C23.03311799 243.44490991 26.57903754 243.50377614 30.125 243.5625 C32.5247475 243.60568187 34.92448727 243.64929605 37.32421875 243.69335938 C43.21606513 243.80059488 49.10798731 243.90235472 55 244 C52.67824141 245.54783906 50.80826992 246.59160107 48.28222656 247.64819336 C47.54425842 247.95869125 46.80629028 248.26918915 46.04595947 248.58909607 C45.2521991 248.9193428 44.45843872 249.24958954 43.640625 249.58984375 C42.81802185 249.93503555 41.9954187 250.28022736 41.14788818 250.63587952 C38.51648353 251.73937028 35.88329535 252.83852974 33.25 253.9375 C30.63140749 255.03388491 28.01318002 256.13113834 25.3949585 257.22840881 C23.76688736 257.91032306 22.13852574 258.59154432 20.50982666 259.2719574 C19.75924988 259.58560745 19.0086731 259.89925751 18.23535156 260.22241211 C17.51899536 260.52009491 16.80263916 260.81777771 16.0645752 261.1244812 C14.71266614 261.69778161 13.36797337 262.28848148 12.03210449 262.89822388 C8.68467279 264.4181313 6.76681868 265 3 265 C2.7097998 264.3694873 2.41959961 263.73897461 2.12060547 263.08935547 C-8.98940846 238.9606731 -20.23115903 214.89447993 -31.51431274 190.84637451 C-36.39824669 180.43574746 -41.25064348 170.01084805 -46.08618164 159.57763672 C-50.20027219 150.70715822 -54.34536007 141.851529 -58.5 133 C-63.74138172 121.8326261 -68.95571775 110.6532543 -74.14526367 99.46166992 C-77.88843436 91.3904761 -81.64124893 83.32385343 -85.40322876 75.26141357 C-86.29937819 73.34062501 -87.19498508 71.4195841 -88.09057617 69.49853516 C-90.5970274 64.12511726 -93.1098579 58.75512464 -95.66015625 53.40234375 C-96.04196045 52.59949951 -96.42376465 51.79665527 -96.81713867 50.96948242 C-97.49741704 49.54220095 -98.18091313 48.11644631 -98.8684082 46.69262695 C-101 42.2203937 -101 42.2203937 -101 40 C-80.7361251 31.54830704 -60.4006053 23.28495253 -40.01489258 15.13183594 C-36.02259419 13.53495826 -32.03225738 11.93323453 -28.04230976 10.33049393 C-24.93357627 9.08257816 -21.82361166 7.8377549 -18.71327782 6.59383392 C-17.2379946 6.00324967 -15.76315687 5.41155127 -14.28878212 4.8187027 C-12.25801533 4.00250559 -10.22557227 3.1906355 -8.19262695 2.37988281 C-7.04099564 1.91866028 -5.88936432 1.45743774 -4.70283508 0.98223877 C-2 0 -2 0 0 0 Z " fill="#0E8BA7" transform="translate(144,28)"/>
<path d="M0 0 C3.10809838 2.69718943 4.78239981 5.21942199 6.42578125 8.96484375 C13.82054869 24.52954162 21.88779539 31.80554163 37.64086914 38.7175293 C40.2821943 40.15340646 42.0279208 41.74120502 44 44 C44.53125 46 44.53125 46 44.5 48 C44.51546875 48.99 44.51546875 48.99 44.53125 50 C43.76870945 52.87074091 42.20278877 54.03952508 40 56 C37.64086914 57.2824707 37.64086914 57.2824707 35.03515625 58.42578125 C19.47045838 65.82054869 12.19445837 73.88779539 5.2824707 89.64086914 C3.84659354 92.2821943 2.25879498 94.0279208 0 96 C-2 96.53125 -2 96.53125 -4 96.5 C-4.99 96.51546875 -4.99 96.51546875 -6 96.53125 C-8.87112229 95.76860814 -10.03561366 94.20163788 -12 92 C-13.36181641 89.59326172 -13.36181641 89.59326172 -14.6015625 86.9296875 C-21.25864783 73.44610834 -26.91316865 65.84475383 -40.86572266 59.97167969 C-50.12100118 55.75799763 -50.12100118 55.75799763 -52 52 C-52.46343537 46.25340136 -52.46343537 46.25340136 -52 44 C-49.28293189 40.87438231 -46.66287681 39.1360301 -42.9296875 37.3984375 C-29.44610834 30.74135217 -21.84475383 25.08683135 -15.97167969 11.13427734 C-12.4957711 3.49950528 -9.33246345 -1.91931795 0 0 Z " fill="#000001" transform="translate(92,304)"/>
<path d="M0 0 C3.32824185 4.08063695 5.56061172 8.85871981 7.49609375 13.7265625 C13.43370898 27.42059774 24.58776671 32.38871536 37.62084961 38.62817383 C40 40 40 40 42 43 C42.72727273 48.63636364 42.72727273 48.63636364 42 51 C37.28973189 55.71796463 31.5791268 58.66695535 25.75 61.8125 C24.83992188 62.31458984 23.92984375 62.81667969 22.9921875 63.33398438 C16.26866497 67 16.26866497 67 14 67 C13.67322266 68.16789062 13.67322266 68.16789062 13.33984375 69.359375 C11.53675882 74.25871949 9.08368106 78.68754979 6.5625 83.25 C6.07201172 84.16007812 5.58152344 85.07015625 5.07617188 86.0078125 C4.35977539 87.31105469 4.35977539 87.31105469 3.62890625 88.640625 C3.19650635 89.42985352 2.76410645 90.21908203 2.31860352 91.03222656 C1 93 1 93 -2 95 C-7.63181818 95.53636364 -7.63181818 95.53636364 -10 95 C-13.09582143 92.27258951 -15.05610422 89.47886611 -17.015625 85.8671875 C-17.54414063 84.89652344 -18.07265625 83.92585938 -18.6171875 82.92578125 C-19.15601563 81.91902344 -19.69484375 80.91226563 -20.25 79.875 C-20.80429687 78.86050781 -21.35859375 77.84601563 -21.9296875 76.80078125 C-26 69.27170567 -26 69.27170567 -26 67 C-26.80179687 66.77054687 -27.60359375 66.54109375 -28.4296875 66.3046875 C-32.92807334 64.66085723 -36.9529658 62.45943349 -41.125 60.125 C-41.92292969 59.69058594 -42.72085937 59.25617188 -43.54296875 58.80859375 C-51.32132337 54.48439995 -51.32132337 54.48439995 -54 51 C-54.77403846 45.58173077 -54.77403846 45.58173077 -54 43 C-51.15632186 39.29316799 -48.40556038 37.59501839 -44.15625 35.6953125 C-28.77927761 28.81939737 -22.04595589 20.65799 -15.18481445 5.375 C-13.69690521 2.39243641 -12.29814814 -0.35092593 -9.25 -1.875 C-5.50971784 -2.08279345 -3.44345539 -1.60298786 0 0 Z " fill="#010000" transform="translate(470,195)"/>
<path d="M0 0 C0.61447998 0.42748535 1.22895996 0.8549707 1.86206055 1.29541016 C2.56741943 1.77703613 3.27277832 2.25866211 3.99951172 2.75488281 C4.74177002 3.27614746 5.48402832 3.79741211 6.2487793 4.33447266 C7.85477241 5.43456723 9.46156243 6.53349919 11.0690918 7.63134766 C11.88023437 8.18886719 12.69137695 8.74638672 13.52709961 9.32080078 C17.18384596 11.80804049 20.9009917 14.19770627 24.6237793 16.58447266 C32.45266152 21.6234692 40.20533904 26.77175292 47.9362793 31.95947266 C46.9362793 33.95947266 45.9362793 35.95947266 44.9362793 37.95947266 C42.18976808 38.39552295 39.51360962 38.71229789 36.7487793 38.95947266 C35.09240061 39.12879137 33.43615098 39.29937708 31.7800293 39.47119141 C30.54446289 39.5956665 30.54446289 39.5956665 29.28393555 39.72265625 C3.13219626 42.36067488 -17.88555018 51.94871417 -36.0637207 70.95947266 C-37.39467945 72.29517635 -38.7275045 73.62902844 -40.0637207 74.95947266 C-40.19907227 74.11126953 -40.33442383 73.26306641 -40.47387695 72.38916016 C-43.55986701 55.57328618 -51.92710139 43.84314301 -62.54907227 30.84375 C-67.0637207 25.22736434 -67.0637207 25.22736434 -67.0637207 22.95947266 C-60.08947408 19.88032287 -53.09480876 16.84953526 -46.09259033 13.83459473 C-43.9064829 12.89165052 -41.72215596 11.94464896 -39.5378418 10.99755859 C-35.50709623 9.25214861 -31.46896843 7.52473202 -27.4263916 5.80691528 C-25.81304052 5.11841708 -24.20192946 4.42464542 -22.59313965 3.72555542 C-20.30658819 2.73323883 -18.01261653 1.76040765 -15.71606445 0.79150391 C-14.69067818 0.33914871 -14.69067818 0.33914871 -13.64457703 -0.12234497 C-8.54864475 -2.23726933 -4.96411679 -2.50290616 0 0 Z " fill="#F2A36D" transform="translate(248.063720703125,274.04052734375)"/>
<path d="M0 0 C1.02665268 -0.00241196 2.05330536 -0.00482391 3.11106873 -0.00730896 C5.27712881 -0.00633117 7.44321409 0.00704614 9.60913086 0.03198242 C12.92582936 0.06632585 16.23986847 0.05262821 19.55664062 0.03320312 C21.66277176 0.04010066 23.76889603 0.0497722 25.875 0.0625 C26.86673721 0.05754013 27.85847443 0.05258026 28.88026428 0.04747009 C32.73297127 0.11346302 35.5548485 0.20030721 38.99389648 2.00610352 C41.22252702 6.25041797 40.94077205 10.43844677 40.90234375 15.16015625 C40.90617065 16.18822388 40.90999756 17.2162915 40.91394043 18.2755127 C40.91666049 20.44751973 40.90929281 22.61955948 40.89257812 24.79150391 C40.8711707 28.11695354 40.89237753 31.4402426 40.91796875 34.765625 C40.91532549 36.87630685 40.91020056 38.98698736 40.90234375 41.09765625 C40.91044067 42.09253052 40.9185376 43.08740479 40.92687988 44.11242676 C40.83327229 51.00021098 40.83327229 51.00021098 38.46289062 54.22460938 C35.45635325 56.24300375 33.76541878 56.75965247 30.18432617 56.8059082 C28.88739082 56.82516106 28.88739082 56.82516106 27.56425476 56.84480286 C26.62781631 56.85218979 25.69137787 56.85957672 24.7265625 56.8671875 C23.76462479 56.87525925 22.80268707 56.88333099 21.81159973 56.89164734 C19.77309982 56.90549235 17.73457669 56.91621263 15.69604492 56.92407227 C12.58142039 56.94128014 9.46785857 56.98516202 6.35351562 57.02929688 C4.37370573 57.03942416 2.3938868 57.04794015 0.4140625 57.0546875 C-0.98148613 57.08094963 -0.98148613 57.08094963 -2.40522766 57.10774231 C-6.67601348 57.09344788 -8.9940366 57.02277321 -12.6940918 54.72729492 C-15.38962873 51.80387032 -15.75793054 50.22222284 -15.82177734 46.3503418 C-15.83784027 45.46569748 -15.8539032 44.58105316 -15.87045288 43.66960144 C-15.9149034 39.62194573 -15.95596766 35.57445403 -15.97900391 31.52661133 C-15.99556466 29.39173482 -16.02285613 27.25691379 -16.06103516 25.12231445 C-16.11579958 22.04479195 -16.13767738 18.96856914 -16.15234375 15.890625 C-16.17501312 14.93838547 -16.1976825 13.98614594 -16.22103882 13.00505066 C-16.20736145 8.71424633 -16.0076123 6.25765825 -13.76049805 2.52685547 C-9.1931477 -0.24125723 -5.24916571 -0.0703179 0 0 Z " fill="#030404" transform="translate(311.62890625,135.37109375)"/>
<path d="M0 0 C7.22538503 4.30603754 11.61183794 10.13263188 14.4375 18 C15.58377924 27.37083278 15.35041227 36.25894094 9.4375 44 C4.17173342 49.79454649 -1.46288906 53.49851854 -9.39453125 54.46875 C-18.96468152 54.54388366 -26.27935606 53.80103194 -33.6171875 47.1328125 C-40.09535088 40.22456359 -42.12992353 33.50211038 -42.04296875 24.06860352 C-41.74395838 15.54582427 -38.83865527 9.83070397 -32.6875 4.0625 C-23.90268227 -3.41745987 -10.46364874 -4.75036814 0 0 Z " fill="#000000" transform="translate(41.5625,210)"/>
<path d="M0 0 C7.22538503 4.30603754 11.61183794 10.13263188 14.4375 18 C15.58377924 27.37083278 15.35041227 36.25894094 9.4375 44 C4.18011031 49.7853284 -1.17517528 53.65156593 -9.0546875 54.27734375 C-19.73901772 54.54180737 -26.87928396 53.518733 -34.73046875 46.0546875 C-41.14928875 38.85575505 -42.55790142 31.26950266 -42.0390625 21.84765625 C-40.98631679 13.34802898 -37.2447975 7.94287674 -30.8203125 2.47265625 C-21.8877495 -3.35360024 -9.81690646 -4.45675508 0 0 Z " fill="#000000" transform="translate(417.5625,362)"/>
<path d="M0 0 C0.00331015 1.22290112 0.00662029 2.44580223 0.01003075 3.70576096 C0.08901516 32.72225228 0.1782224 61.73869943 0.28005161 90.75511901 C0.29257077 94.325027 0.3050035 97.89493528 0.31738281 101.46484375 C0.31984881 102.17556082 0.3223148 102.8862779 0.32485552 103.61853185 C0.36460032 115.13270038 0.39734003 126.64687875 0.42749982 138.16107592 C0.45859246 149.97201445 0.49719246 161.78291116 0.54279006 173.59380269 C0.56819136 180.2293466 0.58985419 186.86486972 0.60334396 193.50045013 C0.6161413 199.74169455 0.63817054 205.98283722 0.66738319 212.22402573 C0.6764772 214.518616 0.68215343 216.81322267 0.68421364 219.10783005 C0.68752328 222.23319709 0.70296565 225.35827339 0.7215271 228.48358154 C0.71959237 229.39797587 0.71765763 230.3123702 0.71566427 231.25447345 C0.72312976 232.09148579 0.73059525 232.92849813 0.73828697 233.79087448 C0.74056529 234.51234311 0.74284362 235.23381174 0.74519098 235.97714305 C1.04554748 238.36158857 1.74271126 239.9593045 3 242 C5.4416617 243.22083085 7.08690806 243.15730743 9.81689453 243.20532227 C10.81778107 243.22526749 11.8186676 243.24521271 12.84988403 243.26576233 C13.93325043 243.28247482 15.01661682 243.29918732 16.1328125 243.31640625 C17.23978485 243.33718735 18.3467572 243.35796844 19.48727417 243.37937927 C23.03311799 243.44490991 26.57903754 243.50377614 30.125 243.5625 C32.5247475 243.60568187 34.92448727 243.64929605 37.32421875 243.69335938 C43.21606513 243.80059488 49.10798731 243.90235472 55 244 C52.67824141 245.54783906 50.80826992 246.59160107 48.28222656 247.64819336 C47.54425842 247.95869125 46.80629028 248.26918915 46.04595947 248.58909607 C45.2521991 248.9193428 44.45843872 249.24958954 43.640625 249.58984375 C42.81802185 249.93503555 41.9954187 250.28022736 41.14788818 250.63587952 C38.51648353 251.73937028 35.88329535 252.83852974 33.25 253.9375 C30.63140749 255.03388491 28.01318002 256.13113834 25.3949585 257.22840881 C23.76688736 257.91032306 22.13852574 258.59154432 20.50982666 259.2719574 C19.75924988 259.58560745 19.0086731 259.89925751 18.23535156 260.22241211 C17.51899536 260.52009491 16.80263916 260.81777771 16.0645752 261.1244812 C14.71266614 261.69778161 13.36797337 262.28848148 12.03210449 262.89822388 C8.68467279 264.4181313 6.76681868 265 3 265 C-0.63 257.08 -4.26 249.16 -8 241 C-7.34 240.67 -6.68 240.34 -6 240 C-6.33 161.46 -6.66 82.92 -7 2 C-2 0 -2 0 0 0 Z " fill="#12778D" transform="translate(144,28)"/>
<path d="M0 0 C2.38671875 1.58203125 2.38671875 1.58203125 4.6875 3.8125 C5.53570312 4.62460937 6.38390625 5.43671875 7.2578125 6.2734375 C8.16273438 7.17320313 9.06765625 8.07296875 10 9 C11.01771435 9.99271555 12.03595435 10.98489247 13.0546875 11.9765625 C21.7090558 20.47254294 21.7090558 20.47254294 22.5 24.625 C21.72629824 29.84748688 18.64064824 32.3357877 15 36 C13.9035393 37.12229176 12.80719376 38.24469604 11.7109375 39.3671875 C1.53120962 49.70834102 1.53120962 49.70834102 -2.625 50.5 C-7.84748688 49.72629824 -10.3357877 46.64064824 -14 43 C-15.12229176 41.9035393 -16.24469604 40.80719376 -17.3671875 39.7109375 C-27.70834102 29.53120962 -27.70834102 29.53120962 -28.5 25.375 C-27.72629824 20.15251312 -24.64064824 17.6642123 -21 14 C-19.9035393 12.87770824 -18.80719376 11.75530396 -17.7109375 10.6328125 C-6.62492215 -0.62900001 -6.62492215 -0.62900001 0 0 Z " fill="#050301" transform="translate(196,22)"/>
<path d="M0 0 C1.26972656 0.00257812 2.53945312 0.00515625 3.84765625 0.0078125 C5.16636719 0.03617187 6.48507813 0.06453125 7.84375 0.09375 C9.16246094 0.09117188 10.48117188 0.08859375 11.83984375 0.0859375 C22.77449158 0.19694915 22.77449158 0.19694915 27.34375 3.59375 C29.44189417 7.79003834 28.57063527 13.24409849 28.58398438 17.86010742 C28.59366423 19.88827939 28.62467532 21.91542642 28.65625 23.94335938 C28.66398437 25.86825195 28.66398437 25.86825195 28.671875 27.83203125 C28.68589355 29.596073 28.68589355 29.596073 28.70019531 31.39575195 C28.30607939 34.93172759 27.52010611 36.79999468 25.34375 39.59375 C20.35941711 41.2551943 15.16688439 40.81884154 9.94702148 40.83398438 C7.91673966 40.8436998 5.8874667 40.87474209 3.85742188 40.90625 C2.57544922 40.91140625 1.29347656 40.9165625 -0.02734375 40.921875 C-1.20224365 40.9312207 -2.37714355 40.94056641 -3.58764648 40.95019531 C-6.94642967 40.56004308 -8.29947237 39.97740837 -10.65625 37.59375 C-12.31310067 32.62319799 -11.95963389 27.45864453 -12.00634766 22.25195312 C-12.02290751 20.89989001 -12.05019924 19.54791446 -12.08837891 18.19628906 C-12.14332871 16.23816461 -12.161916 14.2791272 -12.1796875 12.3203125 C-12.19950684 11.15064941 -12.21932617 9.98098633 -12.23974609 8.77587891 C-10.96283381 1.81216565 -6.58790688 -0.04037157 0 0 Z " fill="#000000" transform="translate(83.65625,71.40625)"/>
<path d="M0 0 C1.26972656 0.00257812 2.53945313 0.00515625 3.84765625 0.0078125 C5.16636719 0.03617188 6.48507812 0.06453125 7.84375 0.09375 C9.16246094 0.09117188 10.48117187 0.08859375 11.83984375 0.0859375 C22.77449158 0.19694915 22.77449158 0.19694915 27.34375 3.59375 C29.44189417 7.79003834 28.57063527 13.24409849 28.58398438 17.86010742 C28.59366423 19.88827939 28.62467532 21.91542642 28.65625 23.94335938 C28.66398437 25.86825195 28.66398437 25.86825195 28.671875 27.83203125 C28.68589355 29.596073 28.68589355 29.596073 28.70019531 31.39575195 C28.30607939 34.93172759 27.52010611 36.79999468 25.34375 39.59375 C20.35941711 41.2551943 15.16688439 40.81884154 9.94702148 40.83398438 C7.91673966 40.8436998 5.8874667 40.87474209 3.85742188 40.90625 C2.57544922 40.91140625 1.29347656 40.9165625 -0.02734375 40.921875 C-1.20224365 40.9312207 -2.37714355 40.94056641 -3.58764648 40.95019531 C-6.94642967 40.56004308 -8.29947237 39.97740837 -10.65625 37.59375 C-12.31310067 32.62319799 -11.95963389 27.45864453 -12.00634766 22.25195312 C-12.02290751 20.89989001 -12.05019924 19.54791446 -12.08837891 18.19628906 C-12.14332871 16.23816461 -12.161916 14.2791272 -12.1796875 12.3203125 C-12.19950684 11.15064941 -12.21932617 9.98098633 -12.23974609 8.77587891 C-10.96283381 1.81216565 -6.58790688 -0.04037157 0 0 Z " fill="#000101" transform="translate(323.65625,63.40625)"/>
<path d="M0 0 C1.98 1.65 3.96 3.3 6 5 C4.51629532 9.22288953 2.33235982 12.73064633 -0.19140625 16.390625 C-0.6088913 17.0042691 -1.02637634 17.61791321 -1.45651245 18.25015259 C-2.82074213 20.25316653 -4.19158566 22.25155675 -5.5625 24.25 C-6.51030876 25.63917074 -7.45765126 27.02865971 -8.40454102 28.41845703 C-10.33138377 31.2451635 -12.26074748 34.07012113 -14.19238281 36.89355469 C-17.5574144 41.81300782 -20.90920793 46.74141577 -24.25952148 51.67089844 C-25.66948725 53.74514916 -27.08039597 55.81875936 -28.49243164 57.89160156 C-29.74770119 59.73495803 -31.00108667 61.57959952 -32.25219727 63.42578125 C-33.42048929 65.14647843 -34.59550965 66.86262587 -35.77709961 68.57421875 C-36.59513062 69.77111328 -36.59513062 69.77111328 -37.4296875 70.9921875 C-37.91034668 71.68940918 -38.39100586 72.38663086 -38.88623047 73.10498047 C-40.57095359 75.97144712 -40.80372262 77.78510951 -40 81 C-36.46715489 85.01877548 -32.49097301 87.77853488 -27.9375 90.5 C-26.52891834 91.36160032 -25.12142141 92.22497574 -23.71484375 93.08984375 C-22.96315918 93.55116699 -22.21147461 94.01249023 -21.43701172 94.48779297 C-16.92172013 97.28960784 -12.46030604 100.17423964 -8 103.0625 C-6.66376587 103.92101562 -6.66376587 103.92101562 -5.30053711 104.796875 C-4.06895874 105.59544922 -4.06895874 105.59544922 -2.8125 106.41015625 C-2.07644531 106.88590088 -1.34039062 107.36164551 -0.58203125 107.85180664 C-0.05996094 108.23071045 0.46210938 108.60961426 1 109 C1 109.33 1 109.66 1 110 C-7.95088063 111.35848104 -13.71351648 109.68197744 -20.8984375 104.484375 C-22.2073431 103.52005883 -23.51320085 102.55159562 -24.81640625 101.57958984 C-28.94991632 98.58945007 -33.27027562 95.87983975 -37.5625 93.125 C-39.23113281 92.04529642 -40.89913365 90.96461533 -42.56640625 89.8828125 C-43.32711426 89.38942383 -44.08782227 88.89603516 -44.87158203 88.38769531 C-47.59495512 86.61209854 -50.30035478 84.81143132 -53 83 C-51.34571333 78.12320114 -48.63391972 74.13540564 -45.8125 69.875 C-44.98274658 68.61006714 -44.98274658 68.61006714 -44.13623047 67.31958008 C-42.48430913 64.8031897 -40.82813845 62.28964336 -39.1708374 59.77679443 C-36.96054251 56.42258004 -34.75607552 53.06453457 -32.55078125 49.70703125 C-29.57682233 45.17977753 -26.60247694 40.65278061 -23.62597656 36.12719727 C-15.71952817 24.10499127 -7.84527886 12.06223453 0 0 Z " fill="#C97934" transform="translate(217,146)"/>
<path d="M0 0 C3 1 3 1 4.4296875 3.36328125 C4.90664062 4.33652344 5.38359375 5.30976563 5.875 6.3125 C9.97783535 14.08682126 15.43674475 16.97944601 23 21 C22 24 22 24 19.63671875 25.4296875 C18.66347656 25.90664063 17.69023438 26.38359375 16.6875 26.875 C8.91317874 30.97783535 6.02055399 36.43674475 2 44 C-1 43 -1 43 -2.4296875 40.63671875 C-2.90664062 39.66347656 -3.38359375 38.69023437 -3.875 37.6875 C-7.97783535 29.91317874 -13.43674475 27.02055399 -21 23 C-20 20 -20 20 -17.70703125 18.7109375 C-16.75183594 18.27007812 -15.79664062 17.82921875 -14.8125 17.375 C-8.86421923 14.2812768 -6.1372626 10.80500291 -3 5 C-2.38125 3.989375 -1.7625 2.97875 -1.125 1.9375 C-0.75375 1.298125 -0.3825 0.65875 0 0 Z " fill="#8CDDEF" transform="translate(87,330)"/>
<path d="M0 0 C0.66 0 1.32 0 2 0 C2.40089844 0.86882812 2.80179687 1.73765625 3.21484375 2.6328125 C6.95304968 10.21094425 10.3145848 15.06391819 18 19 C19.68756133 19.96432076 21.36675689 20.94629477 23 22 C23 22.66 23 23.32 23 24 C20.4453125 25.7265625 20.4453125 25.7265625 17.125 27.625 C15.48917969 28.57246094 15.48917969 28.57246094 13.8203125 29.5390625 C11 31 11 31 9 31 C8.773125 31.639375 8.54625 32.27875 8.3125 32.9375 C6.51434174 37.13320261 4.26095979 41.03900556 2 45 C1.34 45 0.68 45 0 45 C-1.7265625 42.4453125 -1.7265625 42.4453125 -3.625 39.125 C-4.57246094 37.48917969 -4.57246094 37.48917969 -5.5390625 35.8203125 C-7 33 -7 33 -7 31 C-7.639375 30.773125 -8.27875 30.54625 -8.9375 30.3125 C-13.13320261 28.51434174 -17.03900556 26.26095979 -21 24 C-19.66023933 19.98071798 -18.04025707 19.80367113 -14.3125 17.9375 C-7.91820831 14.36399573 -5.04615065 10.54155374 -2 4 C-1.33423928 2.66621408 -0.66789187 1.33272003 0 0 Z " fill="#F08C36" transform="translate(463,219)"/>
<path d="M0 0 C0.33 0 0.66 0 1 0 C2.37884402 17.40790571 2.37884402 17.40790571 -2.25 23.5 C-2.98089844 24.34175781 -3.71179688 25.18351562 -4.46484375 26.05078125 C-7.61616717 29.71680464 -10.17667796 33.64304503 -12.8125 37.6875 C-13.83721529 39.23134994 -14.86326647 40.774314 -15.890625 42.31640625 C-17.45248738 44.66656709 -19.01195835 47.01815027 -20.56445312 49.37451172 C-22.05419198 51.63124949 -23.55686132 53.87885 -25.0625 56.125 C-25.51536377 56.81811279 -25.96822754 57.51122559 -26.43481445 58.2253418 C-27.54626362 59.87155077 -28.76461271 61.44464105 -30 63 C-34.38968456 63 -35.76905739 60.87194899 -39 58 C-38.64518555 57.54214111 -38.29037109 57.08428223 -37.92480469 56.61254883 C-33.74798479 51.14319451 -29.97277729 45.47248803 -26.25 39.6875 C-20.65766116 31.06080746 -15.03049953 22.45877465 -9.3416748 13.89541626 C-8.53054357 12.67344995 -7.72072823 11.45060914 -6.91223145 10.22689819 C-5.78078446 8.51489242 -4.6449397 6.80589264 -3.5078125 5.09765625 C-2.85441895 4.11289307 -2.20102539 3.12812988 -1.52783203 2.11352539 C-1.02364746 1.41606201 -0.51946289 0.71859863 0 0 Z " fill="#CA7934" transform="translate(287,40)"/>
<path d="M0 0 C7.92 0 15.84 0 24 0 C24 7.92 24 15.84 24 24 C16.08 24 8.16 24 0 24 C0 16.08 0 8.16 0 0 Z " fill="#F9F9F9" transform="translate(312,152)"/>
<path d="M0 0 C2.93230193 1.32120828 4.98664899 2.74638197 7.234375 5.0390625 C7.80800781 5.61914062 8.38164062 6.19921875 8.97265625 6.796875 C9.55917969 7.40015625 10.14570313 8.0034375 10.75 8.625 C11.35199219 9.23601562 11.95398438 9.84703125 12.57421875 10.4765625 C14.05405305 11.97988624 15.52764676 13.48934856 17 15 C15.6415798 18.04332765 14.11536976 20.12309151 11.7421875 22.453125 C11.11699219 23.071875 10.49179688 23.690625 9.84765625 24.328125 C9.19667969 24.96234375 8.54570312 25.5965625 7.875 26.25 C7.21628906 26.8996875 6.55757812 27.549375 5.87890625 28.21875 C4.25703357 29.81711727 2.6306719 31.41061897 1 33 C-3.29247821 29.38709249 -7.4521984 25.70497206 -11.4375 21.75 C-12.30246094 20.89921875 -13.16742188 20.0484375 -14.05859375 19.171875 C-16 17 -16 17 -16 15 C-14.53125 13.5546875 -14.53125 13.5546875 -12.5 11.875 C-8.09475988 8.1384124 -4.03400765 4.13056634 0 0 Z " fill="#FCFCFC" transform="translate(227,100)"/>
<path d="M0 0 C3.3258409 2.062783 6.23502468 4.47004936 8 8 C8.45813548 14.07029508 7.41076984 17.18743518 3.5 21.75 C1.10492849 23.74589293 -1.20504322 24.02760197 -4.25 24.4375 C-9.23409112 23.8560227 -11.67351517 21.62718402 -15 18 C-16.63125565 14.7374887 -16.68851113 11.5120384 -16 8 C-12.09306677 1.7008215 -7.64534629 -1.49881789 0 0 Z " fill="#8CDDEF" transform="translate(408,376)"/>
<path d="M0 0 C3.3258409 2.062783 6.23502468 4.47004936 8 8 C8.45813548 14.07029508 7.41076984 17.18743518 3.5 21.75 C1.10492849 23.74589293 -1.20504322 24.02760197 -4.25 24.4375 C-9.23409112 23.8560227 -11.67351517 21.62718402 -15 18 C-16.63125565 14.7374887 -16.68851113 11.5120384 -16 8 C-12.09306677 1.7008215 -7.64534629 -1.49881789 0 0 Z " fill="#F08C36" transform="translate(32,224)"/>
<path d="M0 0 C1.89610642 2.84415963 2.96430261 5.3272013 4.1875 8.5 C10.6635027 24.11749057 21.51709785 36.05599408 35 46 C33.68 47.98 32.36 49.96 31 52 C30.38253906 51.37609375 29.76507813 50.7521875 29.12890625 50.109375 C26.5456121 47.5215312 23.91257942 44.98797564 21.27734375 42.453125 C19.49705759 40.7190972 17.71711948 38.984712 15.9375 37.25 C15.03966797 36.3940625 14.14183594 35.538125 13.21679688 34.65625 C7.9440231 29.48148317 4.40726867 24.99859149 2 18 C1.5875 17.071875 1.175 16.14375 0.75 15.1875 C-0.43200945 10.16395982 -0.14960048 5.13628322 0 0 Z " fill="#76B8C6" transform="translate(281,236)"/>
<path d="M0 0 C5.28 0 10.56 0 16 0 C16 5.28 16 10.56 16 16 C10.72 16 5.44 16 0 16 C0 10.72 0 5.44 0 0 Z " fill="#000000" transform="translate(144,400)"/>
<path d="M0 0 C5.28 0 10.56 0 16 0 C16 5.28 16 10.56 16 16 C10.72 16 5.44 16 0 16 C0 10.72 0 5.44 0 0 Z " fill="#000000" transform="translate(32,144)"/>
<path d="M0 0 C5.28 0 10.56 0 16 0 C16 5.28 16 10.56 16 16 C10.72 16 5.44 16 0 16 C0 10.72 0 5.44 0 0 Z " fill="#000000" transform="translate(416,24)"/>
<path d="M0 0 C8.58 0 17.16 0 26 0 C26 1.98 26 3.96 26 6 C23.25343799 7.17538461 20.50325878 8.34049752 17.75 9.5 C16.97269531 9.83386719 16.19539063 10.16773438 15.39453125 10.51171875 C14.64042969 10.82753906 13.88632813 11.14335937 13.109375 11.46875 C12.41811523 11.76201172 11.72685547 12.05527344 11.01464844 12.35742188 C9 13 9 13 5 13 C4.16209211 11.21046815 3.32980604 9.41830305 2.5 7.625 C1.80390625 6.12839844 1.80390625 6.12839844 1.09375 4.6015625 C0 2 0 2 0 0 Z " fill="#0E89A5" transform="translate(142,280)"/>
<path d="M0 0 C10.23 0 20.46 0 31 0 C26.03242092 3.31171939 20.42681018 5.31309384 14.9375 7.625 C13.72771484 8.140625 12.51792969 8.65625 11.27148438 9.1875 C9.54188477 9.91839844 9.54188477 9.91839844 7.77734375 10.6640625 C6.71765381 11.11217285 5.65796387 11.5602832 4.56616211 12.02197266 C2 13 2 13 0 13 C0 8.71 0 4.42 0 0 Z " fill="#C78A5E" transform="translate(168,272)"/>
<path d="M0 0 C2.5546875 1.375 2.5546875 1.375 4.875 3 C5.65617187 3.53625 6.43734375 4.0725 7.2421875 4.625 C8.11230469 5.305625 8.11230469 5.305625 9 6 C9 6.33 9 6.66 9 7 C-1.56 7 -12.12 7 -23 7 C-19.85273386 4.90182257 -16.62866617 3.34390903 -13.1875 1.8125 C-12.58357422 1.52697266 -11.97964844 1.24144531 -11.35742188 0.94726562 C-7.140995 -0.91812883 -4.41630997 -1.33516348 0 0 Z " fill="#C2865C" transform="translate(246,273)"/>
<path d="M0 0 C1.65 1.32 3.3 2.64 5 4 C3.6415798 7.04332765 2.11536976 9.12309151 -0.2578125 11.453125 C-0.88300781 12.071875 -1.50820312 12.690625 -2.15234375 13.328125 C-2.80332031 13.96234375 -3.45429688 14.5965625 -4.125 15.25 C-4.78371094 15.8996875 -5.44242188 16.549375 -6.12109375 17.21875 C-7.74296643 18.81711727 -9.3693281 20.41061897 -11 22 C-11.66 21.34 -12.32 20.68 -13 20 C-12.34 20 -11.68 20 -11 20 C-10.75378906 19.30132812 -10.50757813 18.60265625 -10.25390625 17.8828125 C-8.81611629 14.57723933 -6.98473769 11.83996493 -4.9375 8.875 C-2.00985657 4.66681321 -2.00985657 4.66681321 0 0 Z " fill="#D2D3D3" transform="translate(239,111)"/>
<path d="M0 0 C2.64 0 5.28 0 8 0 C8 2.64 8 5.28 8 8 C5.36 8 2.72 8 0 8 C0 5.36 0 2.72 0 0 Z " fill="#FFFFFF" transform="translate(88,88)"/>
<path d="M0 0 C2.64 0 5.28 0 8 0 C8 2.64 8 5.28 8 8 C5.36 8 2.72 8 0 8 C0 5.36 0 2.72 0 0 Z " fill="#FFFFFF" transform="translate(328,80)"/>
<path d="M0 0 C2.62187494 1.04874998 3.79371361 1.64931313 5.25 4.125 C5.4975 4.74375 5.745 5.3625 6 6 C4.68 7.32 3.36 8.64 2 10 C-0.62187494 8.95125002 -1.79371361 8.35068687 -3.25 5.875 C-3.4975 5.25625 -3.745 4.6375 -4 4 C-2.68 2.68 -1.36 1.36 0 0 Z " fill="#F9F9F9" transform="translate(192,42)"/>
<path d="M0 0 C3.63 0 7.26 0 11 0 C7.12788877 2.90408342 4.59682146 3.85079464 0 5 C0 3.35 0 1.7 0 0 Z " fill="#EB9F6A" transform="translate(168,280)"/>
</svg>
